<svg width="66" height="54" viewBox="0 0 66 54" fill="none" xmlns="http://www.w3.org/2000/svg">
<path d="M31.6978 12.5276C31.6978 12.5276 25.953 -5.15016 8.08183 4.12234C8.08183 4.12234 -13.2149 34.759 32.7672 53.9843C32.7672 53.9843 66.2056 42.0361 63.306 15.9531C63.306 15.951 51.01 -14.0358 31.6978 12.5276Z" fill="#FFE1E1"/>
<path d="M17.6673 4.84547C13.8092 4.84547 10.4944 6.36915 8.45998 8.40362C5.03224 11.8401 3.93893 18.989 5.81908 25.7901C7.21017 30.8132 10.0902 35.4864 14.1526 39.2967C18.904 43.7547 25.1639 47.0216 32.7671 49.0148C40.3725 47.0238 46.6324 43.7547 51.3817 39.2967C55.4419 35.4843 58.3241 30.8198 59.713 25.7901C61.5953 18.9911 60.5085 11.8422 57.0743 8.4058C54.0356 5.36931 48.1517 3.4696 41.857 6.07789C37.6968 7.80154 35.2124 10.9076 35.2124 14.3918C35.2124 15.7416 34.1169 16.8371 32.7671 16.8371C31.4152 16.8371 30.3219 15.7416 30.3219 14.3918C30.3219 10.9076 27.8396 7.80154 23.6794 6.07789C21.7753 5.27367 19.7322 4.85417 17.6673 4.84547ZM32.7671 53.9814C32.5672 53.9814 32.3672 53.9575 32.1716 53.9075C23.4816 51.7274 16.2936 48.0106 10.8053 42.8592C6.0886 38.4338 2.73476 32.9803 1.10675 27.0899C-0.0669812 22.8514 -0.312596 18.5043 0.395991 14.5375C1.10458 10.5707 2.69564 7.25815 5.00181 4.95198C10.8161 -0.86235 19.5105 -0.938426 25.5421 1.56337C28.3026 2.7045 30.6479 4.40424 32.3237 6.47131C32.4759 6.65607 32.6193 6.84517 32.7584 7.03644C32.8997 6.84517 33.0453 6.65607 33.1953 6.47131C34.8712 4.40424 37.2164 2.70667 39.9769 1.56337C46.0086 -0.936253 54.7116 -0.860176 60.5172 4.95198C62.8234 7.25815 64.4166 10.5729 65.1252 14.5375C65.8316 18.5021 65.5882 22.8514 64.4145 27.0899C62.7843 32.9825 59.4304 38.4338 54.7159 42.8592C49.2277 48.0106 42.0396 51.7274 33.3497 53.9075C33.1584 53.9575 32.9628 53.9814 32.7671 53.9814Z" fill="#FFE1E1"/>
</svg>
