<svg width="66" height="55" viewBox="0 0 66 55" fill="none" xmlns="http://www.w3.org/2000/svg">
<path d="M33.3883 53.683C33.2364 53.7211 33.0806 53.7408 32.924 53.7417C32.7638 53.7416 32.6043 53.7219 32.4488 53.683C23.7848 51.5097 16.6418 47.8102 11.201 42.7024L11.2009 42.7022C6.52491 38.3156 3.20478 32.9133 1.59426 27.0871L1.5942 27.0869C0.432915 22.8933 0.192123 18.6005 0.890339 14.6953C1.58921 10.7864 3.1508 7.55908 5.38085 5.32903C11.0374 -0.32755 19.5402 -0.428873 25.4754 2.03183L25.4758 2.03201C28.1812 3.15063 30.4657 4.81045 32.0929 6.81558L32.0932 6.81589C32.2394 6.99577 32.3797 7.17814 32.5142 7.363L32.917 7.91685L33.3218 7.3645C33.4577 7.17909 33.5989 6.99622 33.7455 6.81589L33.7459 6.81539C35.3712 4.81064 37.6572 3.15233 40.3631 2.03192L40.3633 2.03183C46.2987 -0.428943 54.8078 -0.32741 60.4576 5.32883L60.4578 5.32903C62.6879 7.55913 64.2511 10.7881 64.9483 14.6951C65.645 18.5989 65.4057 22.8935 64.2445 27.0869L64.2445 27.087C62.6323 32.9133 59.3138 38.314 54.6377 42.7023L54.6377 42.7024C49.1969 47.8102 42.0539 51.5097 33.3883 53.683ZM33.3883 53.683L33.5099 54.168L33.3882 53.683C33.3883 53.683 33.3883 53.683 33.3883 53.683ZM17.7558 4.36736H17.7534C13.7486 4.36736 10.2897 5.94804 8.14807 8.08969L8.14765 8.09011C6.32614 9.91595 5.15933 12.6876 4.68041 15.8349C4.20042 18.9893 4.40388 22.5641 5.36604 26.0447L5.36608 26.0449C6.78948 31.1878 9.73529 35.9609 13.8796 39.8491C18.7251 44.3969 25.0945 47.7141 32.7984 49.7326L32.9251 49.7658L33.0518 49.7326C40.7573 47.7141 47.1268 44.3969 51.9723 39.849C56.1146 35.9611 59.0622 31.1947 60.4841 26.0448C61.4471 22.5643 61.6526 18.9895 61.1737 15.8351C60.6958 12.6877 59.5289 9.91574 57.7038 8.08978L57.7036 8.0896C54.5082 4.89583 48.3817 2.94343 41.8676 5.64215C37.5675 7.42317 34.8822 10.6915 34.8822 14.4582C34.8822 14.9773 34.676 15.475 34.309 15.8421C33.9419 16.2091 33.4441 16.4153 32.9251 16.4153C32.406 16.4153 31.9082 16.2091 31.5412 15.8421C31.1742 15.475 30.968 14.9773 30.968 14.4582C30.968 10.6921 28.2851 7.42398 23.9857 5.64277C22.0134 4.81129 19.8962 4.37785 17.7558 4.36736Z" fill="black" stroke="black"/>
</svg>
