<svg width="59" height="69" viewBox="0 0 59 69" fill="none" xmlns="http://www.w3.org/2000/svg">
<path d="M49.7258 34.9731C49.4784 34.7275 49.1851 34.533 48.8625 34.4007C48.5399 34.2684 48.1944 34.2009 47.8458 34.2022C47.4971 34.2034 47.1521 34.2733 46.8305 34.4078C46.5089 34.5424 46.2169 34.739 45.9712 34.9864C45.7255 35.2338 45.531 35.5272 45.3987 35.8498C45.2664 36.1723 45.199 36.5178 45.2002 36.8665C45.2015 37.2151 45.2714 37.5601 45.4059 37.8818C45.5405 38.2034 45.7371 38.4954 45.9845 38.741C48.2297 40.9625 50.012 43.6073 51.2281 46.5223C52.4442 49.4373 53.07 52.5646 53.0692 55.7231C53.0692 58.9603 43.7556 63.6835 29.1881 63.6835C14.6207 63.6835 5.30707 58.9603 5.30707 55.7231C5.30286 52.5854 5.91701 49.4777 7.11444 46.5775C8.31186 43.6772 10.0691 41.0414 12.2856 38.8206C12.7799 38.3235 13.0572 37.651 13.0572 36.95C13.0572 36.249 12.7799 35.5764 12.2856 35.0793C11.7885 34.5851 11.116 34.3077 10.415 34.3077C9.71396 34.3077 9.04144 34.5851 8.54428 35.0793C5.82477 37.7836 3.66918 41.0009 2.2025 44.5446C0.735827 48.0883 -0.0127555 51.8879 0.000164429 55.7231C0.000164429 64.3469 15.0452 68.9904 29.1881 68.9904C43.331 68.9904 58.3761 64.3469 58.3761 55.7231C58.3863 51.863 57.6265 48.0397 56.1412 44.4768C54.6559 40.9139 52.4749 37.683 49.7258 34.9731Z" fill="black"/>
<path d="M29.1879 37.1483C32.8616 37.1483 36.4527 36.059 39.5072 34.018C42.5617 31.9771 44.9424 29.0762 46.3482 25.6822C47.7541 22.2882 48.1219 18.5536 47.4052 14.9505C46.6885 11.3475 44.9195 8.0379 42.3218 5.44025C39.7242 2.84261 36.4146 1.07359 32.8116 0.356906C29.2085 -0.359782 25.4739 0.00804787 22.0799 1.41388C18.6859 2.81972 15.785 5.20041 13.7441 8.25492C11.7031 11.3094 10.6138 14.9005 10.6138 18.5742C10.6138 23.5003 12.5707 28.2248 16.054 31.7081C19.5373 35.1914 24.2618 37.1483 29.1879 37.1483ZM29.1879 5.30691C31.8119 5.30691 34.377 6.08502 36.5588 7.54285C38.7406 9.00067 40.4411 11.0727 41.4453 13.497C42.4494 15.9213 42.7122 18.5889 42.2003 21.1625C41.6883 23.7361 40.4248 26.1001 38.5693 27.9555C36.7138 29.811 34.3498 31.0746 31.7762 31.5865C29.2026 32.0984 26.535 31.8357 24.1108 30.8315C21.6865 29.8273 19.6144 28.1268 18.1566 25.9451C16.6988 23.7633 15.9207 21.1982 15.9207 18.5742C15.9207 15.0555 17.3185 11.6809 19.8066 9.1928C22.2947 6.70471 25.6692 5.30691 29.1879 5.30691Z" fill="black"/>
</svg>
